<?xml version="1.0" standalone="yes"?>

<svg version="1.1" viewBox="0.0 0.0 960.0 600.0" fill="none" stroke="none" stroke-linecap="square" stroke-miterlimit="10" xmlns="http://www.w3.org/2000/svg" xmlns:xlink="http://www.w3.org/1999/xlink"><clipPath id="p.0"><path d="m0 0l960.0 0l0 600.0l-960.0 0l0 -600.0z" clip-rule="nonzero"></path></clipPath><g clip-path="url(#p.0)"><path fill="#2c3e50" d="m0 0l960.0 0l0 600.0l-960.0 0z" fill-rule="nonzero"></path><path fill="#2ecc71" d="m0 104.708664l135.29134 -104.708664l135.29134 0l-270.58267 209.41733z" fill-rule="nonzero"></path><path fill="#2ecc71" d="m-4.0 476.46982l135.29134 -104.70865l135.29134 0l-270.58267 209.4173z" fill-rule="nonzero"></path><path fill="#2ecc71" d="m0 278.82678l135.29134 -104.70868l135.29134 0l-270.58267 209.41733z" fill-rule="nonzero"></path><path fill="#2ecc71" d="m132.0 176.70927l135.29135 -104.70866l135.29132 0l-270.58267 209.41733z" fill-rule="nonzero"></path><path fill="#2ecc71" d="m267.528 71.29643l135.29135 -104.708664l135.29135 0l-270.5827 209.41733z" fill-rule="nonzero"></path><path fill="#2ecc71" d="m483.29398 99.05249l135.29135 -104.70866l135.29132 0l-270.58267 209.41733z" fill-rule="nonzero"></path><path fill="#2ecc71" d="m87.76903 600.2441l135.29134 -104.70865l135.29135 0l-270.5827 209.41733z" fill-rule="nonzero"></path><path fill="#2ecc71" d="m121.64567 379.5322l135.29135 -104.70868l135.29132 0l-270.58267 209.41733z" fill-rule="nonzero"></path><path fill="#2ecc71" d="m221.17323 496.47244l135.29134 -104.70865l135.29135 0l-270.5827 209.4173z" fill-rule="nonzero"></path><path fill="#2ecc71" d="m246.3517 283.06686l135.29134 -104.70868l135.29135 0l-270.5827 209.41733z" fill-rule="nonzero"></path><path fill="#2ecc71" d="m374.3517 184.00323l135.29132 -104.70866l135.29135 0l-270.58267 209.41733z" fill-rule="nonzero"></path><path fill="#2ecc71" d="m357.17523 391.29822l135.29135 -104.70868l135.29135 0l-270.5827 209.41733z" fill-rule="nonzero"></path><path fill="#2ecc71" d="m334.3517 598.8268l135.29132 -104.70868l135.29135 0l-270.58267 209.41736z" fill-rule="nonzero"></path><path fill="#2ecc71" d="m673.4173 146.82848l135.29138 -104.708664l135.29132 0l-270.5827 209.41731z" fill-rule="nonzero"></path><path fill="#2ecc71" d="m568.94226 228.23792l135.29132 -104.70866l135.29138 0l-270.5827 209.41733z" fill-rule="nonzero"></path><path fill="#2ecc71" d="m470.3517 493.6503l135.29135 -104.70865l135.29132 0l-270.58267 209.4173z" fill-rule="nonzero"></path><path fill="#2ecc71" d="m599.05853 393.65137l135.29132 -104.70865l135.29132 0l-270.58264 209.41733z" fill-rule="nonzero"></path><path fill="#2ecc71" d="m451.99738 317.88034l135.29132 -104.70865l135.29138 0l-270.5827 209.41733z" fill-rule="nonzero"></path><path fill="#2ecc71" d="m728.2356 293.88513l135.29132 -104.708664l135.29138 0l-270.5827 209.41731z" fill-rule="nonzero"></path><path fill="#2ecc71" d="m609.8819 584.9449l135.29132 -104.70868l135.29132 0l-270.58264 209.41736z" fill-rule="nonzero"></path><path fill="#2ecc71" d="m742.3517 482.35617l135.29138 -104.70865l135.29132 0l-270.5827 209.4173z" fill-rule="nonzero"></path><path fill="#2ecc71" d="m845.41205 402.82724l135.29138 -104.70868l135.29132 0l-270.5827 209.41733z" fill-rule="nonzero"></path><path fill="#2ecc71" d="m766.3517 74.356186l135.29138 -104.708664l135.29126 0l-270.58264 209.41733z" fill-rule="nonzero"></path><path fill="#2ecc71" d="m830.3517 214.82677l135.29138 -104.70866l135.29126 0l-270.58264 209.41733z" fill-rule="nonzero"></path><path fill="#2ecc71" d="m830.3517 598.8268l135.29138 -104.70868l135.29126 0l-270.58264 209.41736z" fill-rule="nonzero"></path><path fill="#2ecc71" d="m582.3517 606.8268l135.29138 -104.70868l135.29132 0l-270.5827 209.41736z" fill-rule="nonzero"></path></g></svg>

